<svg width="320" height="310" viewBox="0 0 320 310" fill="none" xmlns="http://www.w3.org/2000/svg">
<g filter="url(#filter0_f_175_13313)">
<ellipse cx="160" cy="155" rx="155" ry="150" fill="#E7EDE6" fill-opacity="0.6"/>
</g>
<g filter="url(#filter1_d_175_13313)">
<rect x="29" y="68.6662" width="248.592" height="190.221" rx="34" transform="rotate(-5 29 68.6662)" fill="white"/>
</g>
<path d="M59.8898 92.4794C59.8206 92.1116 59.6375 91.8373 59.3405 91.6563C59.0435 91.4752 58.6559 91.4057 58.1776 91.4475C57.8526 91.4759 57.5822 91.5459 57.3665 91.6575C57.1504 91.766 56.9896 91.9052 56.884 92.0751C56.7814 92.2447 56.739 92.4307 56.7567 92.633C56.7653 92.8022 56.8135 92.9463 56.9011 93.0653C56.9918 93.184 57.1102 93.2833 57.2562 93.3632C57.4019 93.4401 57.5682 93.5043 57.755 93.5559C57.9415 93.6045 58.1395 93.6428 58.349 93.6708L59.2129 93.7991C59.6317 93.8551 60.0196 93.9448 60.3764 94.068C60.7332 94.1913 61.0471 94.3538 61.3181 94.5557C61.589 94.7575 61.8068 95.0041 61.9713 95.2956C62.1389 95.5868 62.2414 95.9284 62.2788 96.3206C62.3262 96.8973 62.2227 97.4099 61.9685 97.8585C61.717 98.3037 61.3286 98.6667 60.8033 98.9475C60.2807 99.2249 59.6362 99.3972 58.8697 99.4642C58.1094 99.5307 57.4369 99.4722 56.8524 99.2885C56.271 99.1046 55.8023 98.798 55.4466 98.3688C55.0936 97.9363 54.8798 97.3819 54.8052 96.7057L56.7322 96.5371C56.7813 96.851 56.8948 97.1068 57.0727 97.3044C57.2534 97.4986 57.4834 97.6376 57.7626 97.7213C58.0446 97.8017 58.3573 97.8269 58.7007 97.7968C59.0379 97.7673 59.3264 97.6926 59.5662 97.5728C59.809 97.4527 59.9918 97.2992 60.1144 97.1124C60.2371 96.9256 60.2885 96.7187 60.2687 96.4918C60.2502 96.2803 60.1718 96.108 60.0334 95.9749C59.8982 95.8415 59.7066 95.7347 59.4586 95.6544C59.2137 95.5739 58.9159 95.5073 58.5653 95.4545L57.5172 95.2867C56.7062 95.163 56.0528 94.9159 55.5569 94.5453C55.0611 94.1747 54.7843 93.6413 54.7265 92.945C54.6735 92.375 54.7817 91.8636 55.051 91.4106C55.3234 90.9573 55.7189 90.5875 56.2376 90.3011C56.7563 90.0148 57.359 89.8416 58.0458 89.7815C58.7448 89.7203 59.3654 89.7865 59.9075 89.9801C60.4527 90.1733 60.8896 90.4703 61.2181 90.871C61.5467 91.2717 61.7401 91.7522 61.7984 92.3124L59.8898 92.4794ZM63.203 91.1144L63.0594 89.4726L70.7948 88.7959L70.9384 90.4377L68.0549 90.6899L68.7353 98.4667L66.7669 98.6389L66.0865 90.8621L63.203 91.1144ZM73.2812 98.069L72.4572 88.6504L76.1731 88.3253C76.8844 88.2631 77.5026 88.3372 78.0277 88.5477C78.5555 88.7548 78.9716 89.0784 79.2757 89.5182C79.5827 89.9548 79.7634 90.4843 79.8179 91.1067C79.8726 91.7321 79.7848 92.282 79.5544 92.7563C79.3237 93.2275 78.9629 93.6051 78.4718 93.889C77.9838 94.1727 77.378 94.3462 76.6544 94.4095L74.1664 94.6272L74.0264 93.0267L76.1925 92.8372C76.5727 92.804 76.8839 92.7242 77.1262 92.598C77.3685 92.4718 77.5418 92.299 77.6462 92.0798C77.7537 91.8603 77.7938 91.5958 77.7668 91.2861C77.7394 90.9734 77.6535 90.7152 77.509 90.5116C77.3676 90.3077 77.1648 90.1617 76.9007 90.0736C76.6393 89.9821 76.3171 89.9532 75.9338 89.9867L74.5909 90.1042L75.2725 97.8948L73.2812 98.069ZM77.9926 93.3378L80.7084 97.4192L78.5102 97.6115L75.8449 93.5257L77.9926 93.3378ZM82.1685 97.2914L81.3445 87.8729L87.691 87.3176L87.8346 88.9594L83.4794 89.3405L83.6758 91.5847L87.7044 91.2323L87.8481 92.8741L83.8194 93.2265L84.0162 95.4754L88.3897 95.0928L88.5334 96.7346L82.1685 97.2914ZM90.4867 96.5637L89.6627 87.1451L96.0092 86.5899L96.1528 88.2317L91.7976 88.6127L91.994 90.857L96.0226 90.5045L96.1663 92.1463L92.1376 92.4988L92.3344 94.7477L96.7079 94.365L96.8516 96.0068L90.4867 96.5637ZM97.7658 88.0906L97.6221 86.4488L105.358 85.772L105.501 87.4138L102.618 87.6661L103.298 95.4428L101.33 95.6151L100.649 87.8383L97.7658 88.0906ZM112.853 94.6069L110.719 94.7936L113.147 85.0905L115.713 84.866L119.784 94.0005L117.65 94.1872L114.655 87.1274L114.581 87.1338L112.853 94.6069ZM112.396 90.9164L117.436 90.4754L117.572 92.0299L112.532 92.4709L112.396 90.9164ZM121.306 93.8674L120.482 84.4488L124.198 84.1237C124.909 84.0615 125.527 84.1356 126.052 84.3461C126.58 84.5532 126.996 84.8767 127.3 85.3166C127.607 85.7532 127.788 86.2827 127.843 86.905C127.897 87.5305 127.809 88.0804 127.579 88.5547C127.348 89.0259 126.988 89.4035 126.497 89.6874C126.008 89.9711 125.403 90.1446 124.679 90.2079L122.191 90.4256L122.051 88.8251L124.217 88.6356C124.597 88.6024 124.909 88.5226 125.151 88.3964C125.393 88.2701 125.567 88.0974 125.671 87.8782C125.778 87.6587 125.819 87.3941 125.791 87.0845C125.764 86.7718 125.678 86.5136 125.534 86.31C125.392 86.1061 125.19 85.9601 124.925 85.872C124.664 85.7805 124.342 85.7516 123.959 85.7851L122.616 85.9026L123.297 93.6931L121.306 93.8674ZM126.017 89.1362L128.733 93.2176L126.535 93.4099L123.87 89.3241L126.017 89.1362ZM129.154 85.3444L129.01 83.7026L136.746 83.0259L136.889 84.6677L134.006 84.92L134.686 92.6967L132.718 92.8689L132.038 85.0922L129.154 85.3444ZM142.618 92.0028L141.794 82.5842L143.785 82.41L144.125 86.2961L148.168 85.9424L147.828 82.0563L149.815 81.8825L150.639 91.3011L148.652 91.4749L148.312 87.5842L144.269 87.9379L144.609 91.8286L142.618 92.0028ZM157.663 81.1959L159.654 81.0217L160.189 87.1382C160.249 87.825 160.138 88.4403 159.855 88.9841C159.575 89.5276 159.155 89.969 158.594 90.3085C158.034 90.6448 157.364 90.8471 156.585 90.9152C155.803 90.9836 155.107 90.9009 154.497 90.667C153.886 90.43 153.395 90.0682 153.025 89.5816C152.655 89.0949 152.44 88.5082 152.38 87.8214L151.845 81.7049L153.836 81.5307L154.357 87.4771C154.388 87.8358 154.494 88.1478 154.675 88.4131C154.859 88.6782 155.102 88.8778 155.404 89.012C155.706 89.1462 156.049 89.1966 156.432 89.163C156.818 89.1292 157.147 89.0202 157.418 88.8358C157.692 88.6511 157.895 88.4125 158.027 88.1198C158.162 87.8268 158.214 87.501 158.183 87.1423L157.663 81.1959ZM169.559 80.1551L170.383 89.5737L168.663 89.7242L164.046 84.1547L163.977 84.1607L164.496 90.0887L162.505 90.2629L161.681 80.8444L163.428 80.6915L168.012 86.2592L168.095 86.2519L167.577 80.3285L169.559 80.1551ZM171.377 81.6504L171.234 80.0086L178.969 79.3318L179.113 80.9736L176.229 81.2259L176.91 89.0027L174.941 89.1749L174.261 81.3981L171.377 81.6504Z" fill="#15A963"/>
<path d="M54.6774 115.634L54.5007 113.613L64.0211 112.78L64.1979 114.801L60.649 115.112L61.4863 124.683L59.0638 124.895L58.2264 115.324L54.6774 115.634ZM69.2401 124.176C68.3609 124.253 67.5842 124.132 66.91 123.815C66.2393 123.493 65.701 123.012 65.295 122.371C64.8888 121.726 64.6467 120.958 64.5688 120.067C64.4902 119.169 64.5951 118.369 64.8835 117.667C65.1716 116.961 65.6181 116.394 66.2232 115.964C66.8316 115.531 67.5755 115.276 68.4547 115.199C69.3339 115.122 70.1089 115.244 70.7796 115.566C71.4538 115.883 71.994 116.364 72.4003 117.009C72.8062 117.651 73.0484 118.42 73.127 119.318C73.2049 120.209 73.0998 121.007 72.8118 121.713C72.5234 122.415 72.075 122.983 71.4665 123.416C70.8614 123.846 70.1193 124.099 69.2401 124.176ZM69.088 122.307C69.488 122.272 69.812 122.129 70.0601 121.88C70.3079 121.626 70.4824 121.295 70.5836 120.887C70.6885 120.479 70.7189 120.022 70.6747 119.516C70.6304 119.01 70.5212 118.565 70.3469 118.181C70.1764 117.797 69.9471 117.502 69.659 117.295C69.371 117.088 69.027 117.002 68.627 117.037C68.2232 117.073 67.8937 117.217 67.6383 117.472C67.3868 117.726 67.2085 118.057 67.1036 118.465C67.0024 118.873 66.9739 119.33 67.0182 119.836C67.0624 120.341 67.1698 120.786 67.3403 121.171C67.5146 121.555 67.7476 121.85 68.0395 122.056C68.3347 122.259 68.6842 122.342 69.088 122.307ZM78.2883 123.356C77.6279 123.413 77.015 123.296 76.4494 123.003C75.8873 122.706 75.4206 122.24 75.0493 121.603C74.6815 120.962 74.4551 120.157 74.3703 119.187C74.2831 118.191 74.371 117.348 74.634 116.66C74.8966 115.968 75.2796 115.434 75.783 115.059C76.2897 114.68 76.862 114.463 77.4997 114.407C77.9865 114.365 78.3994 114.412 78.7384 114.55C79.0809 114.683 79.3629 114.864 79.5843 115.092C79.8092 115.316 79.9848 115.54 80.1109 115.764L80.1845 115.758L79.8032 111.4L82.2087 111.189L83.2229 122.781L80.8456 122.989L80.7238 121.597L80.6219 121.606C80.5299 121.857 80.3904 122.111 80.2037 122.367C80.0204 122.618 79.7714 122.836 79.4566 123.02C79.1456 123.203 78.7562 123.315 78.2883 123.356ZM78.8845 121.37C79.2732 121.336 79.5922 121.202 79.8417 120.967C80.0945 120.728 80.2758 120.41 80.3856 120.012C80.4991 119.615 80.5332 119.157 80.488 118.64C80.4427 118.123 80.3317 117.681 80.155 117.312C79.9783 116.943 79.745 116.667 79.4551 116.483C79.1653 116.3 78.826 116.225 78.4374 116.259C78.0412 116.293 77.7166 116.43 77.4637 116.669C77.2109 116.908 77.0313 117.224 76.925 117.617C76.8187 118.011 76.7876 118.458 76.8315 118.96C76.8757 119.466 76.9846 119.907 77.1583 120.283C77.3353 120.656 77.5674 120.94 77.8545 121.135C78.145 121.326 78.4883 121.405 78.8845 121.37ZM87.6989 122.555C87.1442 122.604 86.6415 122.551 86.1907 122.396C85.7396 122.238 85.3709 121.979 85.0848 121.62C84.8021 121.257 84.6356 120.789 84.5854 120.215C84.5432 119.732 84.5963 119.319 84.745 118.975C84.8936 118.631 85.112 118.346 85.4002 118.119C85.6883 117.892 86.0223 117.711 86.402 117.575C86.7855 117.439 87.1906 117.331 87.6171 117.252C88.1181 117.155 88.5214 117.07 88.8268 116.998C89.132 116.922 89.3502 116.831 89.4816 116.724C89.613 116.618 89.6706 116.472 89.6544 116.287L89.6514 116.253C89.62 115.894 89.4826 115.627 89.239 115.451C88.9992 115.274 88.6736 115.204 88.2623 115.239C87.8284 115.277 87.4915 115.404 87.2518 115.619C87.0117 115.83 86.8627 116.082 86.8048 116.377L84.5588 116.391C84.6258 115.852 84.8085 115.376 85.1069 114.962C85.4049 114.545 85.8071 114.209 86.3135 113.956C86.8233 113.698 87.4253 113.539 88.1196 113.478C88.6027 113.436 89.0699 113.452 89.5213 113.527C89.9764 113.601 90.3861 113.742 90.7503 113.95C91.1182 114.157 91.4186 114.439 91.6512 114.795C91.8836 115.147 92.0224 115.582 92.0676 116.099L92.5806 121.963L90.2939 122.163L90.1884 120.957L90.1205 120.963C90.0047 121.247 89.8388 121.503 89.623 121.731C89.4069 121.955 89.1398 122.14 88.8218 122.286C88.5034 122.428 88.1291 122.517 87.6989 122.555ZM88.2439 120.831C88.5986 120.8 88.9057 120.702 89.1651 120.539C89.4243 120.372 89.6207 120.161 89.7542 119.906C89.8878 119.651 89.9412 119.37 89.9145 119.065L89.8338 118.142C89.7626 118.198 89.6628 118.252 89.5344 118.305C89.4094 118.354 89.2672 118.403 89.1079 118.451C88.9483 118.495 88.7885 118.538 88.6286 118.578C88.4683 118.615 88.323 118.649 88.1925 118.679C87.9132 118.745 87.6718 118.833 87.4684 118.942C87.265 119.051 87.1116 119.188 87.0081 119.353C86.9044 119.514 86.8624 119.708 86.8822 119.934C86.9109 120.263 87.0517 120.503 87.3046 120.656C87.561 120.805 87.8741 120.863 88.2439 120.831ZM95.9139 124.956C95.6082 124.983 95.3193 124.983 95.0471 124.958C94.779 124.936 94.555 124.896 94.3752 124.84L94.7611 122.992C95.0517 123.054 95.3105 123.079 95.5376 123.067C95.7684 123.054 95.9619 122.984 96.118 122.857C96.2779 122.728 96.3988 122.524 96.4807 122.243L96.59 121.863L92.6888 113.192L95.2246 112.971L97.5831 119.198L97.6737 119.19L98.932 112.646L101.485 112.423L98.9485 122.352C98.8272 122.834 98.6421 123.261 98.3932 123.633C98.1484 124.008 97.823 124.308 97.4169 124.534C97.0111 124.763 96.5101 124.904 95.9139 124.956ZM104.984 109.197L105.091 110.419C105.121 110.766 105.084 111.127 104.98 111.501C104.88 111.871 104.732 112.226 104.537 112.567C104.342 112.903 104.123 113.194 103.878 113.44L102.759 112.905C102.921 112.59 103.059 112.245 103.17 111.871C103.286 111.495 103.323 111.068 103.281 110.589L103.173 109.355L104.984 109.197ZM113.205 113.896L111.009 114.225C110.955 114.039 110.859 113.877 110.721 113.737C110.583 113.593 110.408 113.484 110.196 113.412C109.988 113.335 109.744 113.309 109.465 113.333C109.092 113.366 108.783 113.473 108.541 113.654C108.298 113.831 108.188 114.05 108.21 114.31C108.229 114.517 108.327 114.686 108.505 114.814C108.684 114.943 108.979 115.034 109.39 115.085L110.992 115.264C111.852 115.364 112.507 115.588 112.955 115.937C113.404 116.285 113.656 116.773 113.711 117.399C113.761 117.969 113.636 118.484 113.338 118.943C113.044 119.402 112.617 119.778 112.057 120.07C111.5 120.359 110.844 120.536 110.09 120.602C108.939 120.703 108.001 120.543 107.276 120.124C106.555 119.7 106.099 119.078 105.909 118.258L108.27 117.926C108.372 118.271 108.57 118.524 108.861 118.685C109.152 118.842 109.513 118.901 109.943 118.864C110.366 118.827 110.699 118.716 110.941 118.531C111.187 118.342 111.3 118.118 111.281 117.857C111.258 117.638 111.15 117.467 110.957 117.343C110.763 117.216 110.474 117.131 110.09 117.088L108.558 116.92C107.695 116.825 107.037 116.586 106.585 116.203C106.137 115.82 105.885 115.304 105.828 114.655C105.779 114.097 105.888 113.602 106.155 113.172C106.425 112.742 106.826 112.393 107.358 112.126C107.893 111.858 108.533 111.692 109.276 111.627C110.374 111.531 111.259 111.688 111.929 112.097C112.604 112.505 113.029 113.105 113.205 113.896ZM125.184 122.395L124.777 117.743L124.704 117.749C124.611 118.001 124.472 118.254 124.285 118.51C124.102 118.762 123.853 118.979 123.538 119.163C123.227 119.346 122.838 119.458 122.37 119.499C121.71 119.557 121.097 119.439 120.531 119.147C119.969 118.85 119.502 118.383 119.131 117.746C118.763 117.105 118.537 116.3 118.452 115.33C118.365 114.334 118.453 113.492 118.716 112.803C118.978 112.111 119.361 111.578 119.865 111.203C120.371 110.824 120.944 110.606 121.581 110.551C122.068 110.508 122.481 110.556 122.82 110.693C123.163 110.827 123.445 111.007 123.666 111.235C123.891 111.459 124.066 111.683 124.192 111.908L124.294 111.899L124.167 110.439L126.544 110.231L127.59 122.185L125.184 122.395ZM122.966 117.513C123.355 117.479 123.674 117.345 123.923 117.11C124.176 116.871 124.357 116.553 124.467 116.156C124.581 115.758 124.615 115.301 124.57 114.784C124.524 114.267 124.413 113.824 124.237 113.455C124.06 113.087 123.827 112.811 123.537 112.627C123.247 112.443 122.908 112.368 122.519 112.402C122.123 112.437 121.798 112.574 121.545 112.812C121.292 113.051 121.113 113.367 121.007 113.761C120.9 114.154 120.869 114.602 120.913 115.104C120.957 115.609 121.066 116.05 121.24 116.427C121.417 116.799 121.649 117.083 121.936 117.278C122.227 117.47 122.57 117.548 122.966 117.513ZM134.492 114.566L134.055 109.573L136.466 109.362L137.227 118.057L134.912 118.259L134.774 116.68L134.683 116.688C134.531 117.214 134.241 117.652 133.811 118.002C133.386 118.351 132.846 118.554 132.194 118.611C131.612 118.662 131.09 118.574 130.625 118.349C130.16 118.123 129.782 117.778 129.491 117.313C129.203 116.848 129.027 116.276 128.964 115.597L128.48 110.061L130.891 109.85L131.338 114.956C131.386 115.469 131.559 115.862 131.857 116.137C132.155 116.411 132.532 116.528 132.989 116.488C133.279 116.463 133.545 116.373 133.787 116.219C134.027 116.061 134.214 115.843 134.345 115.565C134.481 115.287 134.53 114.954 134.492 114.566ZM143.133 117.711C142.238 117.789 141.453 117.675 140.776 117.37C140.102 117.06 139.563 116.586 139.157 115.948C138.751 115.307 138.508 114.528 138.428 113.611C138.35 112.717 138.454 111.917 138.743 111.211C139.031 110.505 139.473 109.936 140.07 109.503C140.671 109.071 141.398 108.817 142.251 108.742C142.825 108.692 143.367 108.738 143.877 108.88C144.391 109.017 144.849 109.253 145.251 109.586C145.656 109.92 145.987 110.355 146.243 110.891C146.499 111.424 146.659 112.06 146.724 112.8L146.782 113.462L139.441 114.104L139.31 112.61L144.381 112.166C144.351 111.819 144.249 111.518 144.074 111.263C143.9 111.009 143.672 110.818 143.391 110.69C143.113 110.559 142.799 110.508 142.448 110.539C142.082 110.571 141.765 110.684 141.497 110.879C141.232 111.069 141.033 111.313 140.899 111.61C140.765 111.903 140.711 112.221 140.737 112.565L140.862 113.986C140.899 114.416 141.011 114.781 141.197 115.08C141.387 115.379 141.636 115.6 141.945 115.744C142.254 115.889 142.611 115.943 143.015 115.908C143.283 115.884 143.525 115.825 143.741 115.73C143.957 115.635 144.137 115.505 144.283 115.34C144.428 115.176 144.532 114.98 144.596 114.754L146.839 114.706C146.773 115.252 146.582 115.74 146.266 116.171C145.953 116.597 145.531 116.946 145 117.217C144.472 117.484 143.85 117.648 143.133 117.711ZM155.372 110.207L153.176 110.536C153.122 110.35 153.026 110.187 152.888 110.047C152.75 109.904 152.575 109.795 152.364 109.723C152.155 109.646 151.912 109.62 151.632 109.644C151.259 109.677 150.951 109.784 150.708 109.964C150.465 110.142 150.355 110.36 150.377 110.621C150.396 110.828 150.494 110.996 150.673 111.125C150.851 111.254 151.146 111.344 151.557 111.396L153.159 111.575C154.019 111.675 154.674 111.899 155.122 112.247C155.571 112.596 155.823 113.084 155.878 113.71C155.928 114.28 155.803 114.794 155.505 115.254C155.211 115.713 154.784 116.089 154.224 116.381C153.667 116.67 153.011 116.847 152.257 116.913C151.106 117.013 150.168 116.854 149.443 116.435C148.722 116.011 148.266 115.389 148.076 114.569L150.437 114.237C150.54 114.582 150.737 114.835 151.028 114.995C151.32 115.152 151.68 115.212 152.11 115.175C152.533 115.138 152.866 115.027 153.108 114.842C153.354 114.653 153.467 114.428 153.448 114.168C153.425 113.949 153.317 113.778 153.124 113.654C152.93 113.527 152.641 113.442 152.257 113.399L150.726 113.231C149.862 113.135 149.204 112.896 148.752 112.514C148.304 112.131 148.052 111.615 147.995 110.966C147.946 110.408 148.055 109.913 148.322 109.483C148.592 109.053 148.993 108.704 149.525 108.437C150.06 108.169 150.7 108.003 151.443 107.938C152.541 107.842 153.426 107.998 154.096 108.407C154.771 108.816 155.196 109.416 155.372 110.207ZM161.496 107.173L161.654 108.984L156.418 109.442L156.26 107.631L161.496 107.173ZM157.266 105.444L159.678 105.233L160.387 113.338C160.406 113.561 160.455 113.731 160.534 113.85C160.613 113.965 160.714 114.042 160.839 114.08C160.968 114.118 161.114 114.13 161.276 114.116C161.389 114.106 161.502 114.087 161.613 114.058C161.724 114.025 161.81 114.001 161.869 113.984L162.405 115.745C162.288 115.794 162.122 115.852 161.907 115.92C161.693 115.992 161.43 116.047 161.118 116.086C160.538 116.16 160.022 116.127 159.569 115.988C159.12 115.848 158.758 115.602 158.484 115.25C158.209 114.898 158.049 114.436 158.003 113.866L157.266 105.444Z" fill="#2F2F2F"/>
<circle cx="69.0263" cy="150.376" r="12" fill="#15A963"/>
<g clip-path="url(#clip0_175_13313)">
<path d="M72.9536 146.066L67.1206 153.017L63.9609 150.366" stroke="white" stroke-width="2" stroke-linecap="round" stroke-linejoin="round"/>
</g>
<circle cx="73.0263" cy="186.376" r="12" fill="#15A963"/>
<g clip-path="url(#clip1_175_13313)">
<path d="M76.9536 182.066L71.1206 189.017L67.9609 186.366" stroke="white" stroke-width="2" stroke-linecap="round" stroke-linejoin="round"/>
</g>
<circle cx="76" cy="222.376" r="11.5" stroke="#D7D2C9"/>
<path d="M91.4346 151.979L90.6105 142.561L96.4511 142.05L96.5582 143.273L92.1386 143.66L92.3897 146.529L96.3907 146.179L96.4974 147.398L92.4963 147.748L92.8556 151.855L91.4346 151.979ZM98.9124 151.325L98.2944 144.261L99.6694 144.141L100.287 151.205L98.9124 151.325ZM98.8934 143.11C98.6543 143.131 98.4419 143.069 98.2563 142.925C98.0734 142.777 97.9722 142.592 97.9526 142.368C97.9328 142.141 98.0002 141.94 98.1549 141.766C98.3124 141.589 98.5107 141.489 98.7498 141.468C98.9889 141.448 99.1999 141.511 99.3828 141.659C99.5684 141.803 99.6712 141.989 99.691 142.216C99.7106 142.439 99.6417 142.64 99.4842 142.818C99.3295 142.992 99.1326 143.089 98.8934 143.11ZM103.145 146.728L103.512 150.922L102.137 151.043L101.519 143.979L102.839 143.863L102.94 145.013L103.027 145.005C103.157 144.617 103.385 144.294 103.712 144.037C104.041 143.78 104.471 143.628 105.002 143.581C105.483 143.539 105.914 143.604 106.293 143.774C106.672 143.942 106.979 144.215 107.213 144.593C107.447 144.971 107.589 145.451 107.64 146.034L108.033 150.527L106.658 150.647L106.279 146.32C106.235 145.808 106.066 145.419 105.774 145.154C105.482 144.886 105.103 144.773 104.637 144.814C104.318 144.842 104.041 144.935 103.804 145.095C103.571 145.254 103.394 145.474 103.273 145.753C103.155 146.029 103.113 146.354 103.145 146.728ZM112.534 150.272C111.964 150.322 111.442 150.221 110.969 149.969C110.498 149.713 110.112 149.326 109.81 148.805C109.511 148.281 109.328 147.638 109.261 146.874C109.195 146.111 109.265 145.447 109.472 144.882C109.682 144.317 109.998 143.87 110.42 143.543C110.843 143.216 111.338 143.027 111.905 142.978C112.343 142.939 112.702 142.982 112.982 143.106C113.264 143.226 113.488 143.377 113.652 143.557C113.819 143.737 113.95 143.897 114.046 144.037L114.129 144.03L113.822 140.53L115.197 140.409L116.021 149.828L114.679 149.946L114.582 148.846L114.467 148.856C114.398 149.014 114.293 149.196 114.154 149.403C114.017 149.609 113.821 149.797 113.563 149.964C113.306 150.132 112.963 150.235 112.534 150.272ZM112.735 149.073C113.13 149.038 113.455 148.905 113.71 148.673C113.967 148.437 114.15 148.126 114.259 147.739C114.37 147.353 114.404 146.911 114.36 146.414C114.317 145.924 114.209 145.501 114.036 145.145C113.863 144.79 113.631 144.521 113.34 144.34C113.049 144.158 112.703 144.085 112.301 144.12C111.887 144.156 111.552 144.294 111.295 144.532C111.038 144.771 110.855 145.082 110.746 145.465C110.641 145.849 110.608 146.273 110.649 146.739C110.69 147.211 110.798 147.63 110.972 147.994C111.146 148.359 111.381 148.64 111.676 148.837C111.974 149.03 112.327 149.109 112.735 149.073ZM124.091 142.004L124.187 143.108L120.329 143.445L120.232 142.342L124.091 142.004ZM121.119 140.559L122.494 140.438L123.079 147.121C123.102 147.387 123.159 147.585 123.251 147.713C123.342 147.838 123.453 147.919 123.583 147.957C123.716 147.992 123.857 148.003 124.007 147.989C124.118 147.98 124.214 147.964 124.295 147.941C124.377 147.918 124.44 147.901 124.485 147.887L124.833 149.002C124.756 149.039 124.645 149.08 124.5 149.123C124.356 149.17 124.174 149.204 123.953 149.227C123.592 149.265 123.249 149.23 122.925 149.122C122.6 149.015 122.329 148.828 122.111 148.563C121.893 148.298 121.766 147.952 121.729 147.526L121.119 140.559ZM127.39 144.607L127.757 148.801L126.382 148.922L125.558 139.503L126.914 139.384L127.221 142.889L127.308 142.881C127.441 142.486 127.667 142.162 127.988 141.909C128.309 141.655 128.743 141.504 129.292 141.456C129.777 141.414 130.208 141.477 130.588 141.644C130.97 141.812 131.278 142.084 131.512 142.462C131.749 142.837 131.893 143.319 131.944 143.907L132.337 148.401L130.962 148.521L130.584 144.193C130.538 143.675 130.37 143.285 130.078 143.023C129.786 142.759 129.403 142.647 128.927 142.689C128.602 142.717 128.317 142.811 128.072 142.972C127.829 143.132 127.646 143.352 127.522 143.632C127.401 143.908 127.357 144.233 127.39 144.607ZM137.229 148.116C136.533 148.177 135.921 148.081 135.392 147.828C134.866 147.571 134.443 147.183 134.122 146.664C133.805 146.142 133.614 145.515 133.55 144.782C133.487 144.058 133.566 143.409 133.787 142.833C134.012 142.258 134.354 141.794 134.815 141.441C135.278 141.089 135.838 140.884 136.494 140.826C136.893 140.791 137.285 140.824 137.67 140.923C138.056 141.022 138.41 141.199 138.732 141.455C139.054 141.711 139.32 142.057 139.532 142.493C139.742 142.926 139.876 143.462 139.932 144.103L139.975 144.591L134.359 145.082L134.269 144.052L138.537 143.678C138.505 143.316 138.404 143.003 138.232 142.736C138.06 142.467 137.834 142.263 137.553 142.124C137.275 141.984 136.958 141.93 136.603 141.961C136.216 141.995 135.887 142.12 135.616 142.335C135.347 142.547 135.148 142.812 135.018 143.129C134.891 143.443 134.843 143.776 134.874 144.128L134.944 144.933C134.985 145.405 135.103 145.8 135.298 146.116C135.495 146.433 135.752 146.665 136.068 146.814C136.383 146.959 136.742 147.014 137.144 146.979C137.404 146.956 137.639 146.899 137.847 146.806C138.055 146.711 138.23 146.581 138.373 146.417C138.517 146.253 138.62 146.058 138.683 145.83L140.006 145.95C139.935 146.343 139.777 146.695 139.533 147.006C139.291 147.315 138.974 147.567 138.584 147.761C138.196 147.953 137.744 148.071 137.229 148.116ZM145.2 147.275L144.582 140.211L145.902 140.096L146.003 141.246L146.09 141.238C146.203 140.836 146.417 140.511 146.733 140.264C147.047 140.014 147.438 139.869 147.904 139.828C148.376 139.787 148.781 139.862 149.119 140.055C149.461 140.248 149.725 140.531 149.912 140.904L149.986 140.897C150.121 140.505 150.363 140.181 150.711 139.925C151.06 139.666 151.488 139.514 151.997 139.47C152.638 139.414 153.178 139.569 153.618 139.935C154.061 140.301 154.318 140.889 154.389 141.698L154.803 146.435L153.428 146.555L153.025 141.947C152.983 141.469 152.822 141.134 152.543 140.942C152.263 140.75 151.943 140.67 151.581 140.702C151.133 140.741 150.798 140.909 150.573 141.207C150.349 141.502 150.255 141.864 150.293 142.293L150.687 146.795L149.316 146.915L148.906 142.22C148.872 141.836 148.726 141.539 148.466 141.327C148.207 141.115 147.885 141.025 147.502 141.059C147.241 141.082 147.007 141.172 146.798 141.329C146.592 141.483 146.432 141.687 146.319 141.941C146.208 142.195 146.167 142.481 146.194 142.8L146.575 147.155L145.2 147.275ZM160.864 142.953L160.503 138.818L161.882 138.698L162.5 145.762L161.148 145.88L161.041 144.657L160.968 144.663C160.838 145.054 160.605 145.391 160.268 145.674C159.934 145.954 159.502 146.117 158.972 146.163C158.518 146.203 158.108 146.138 157.741 145.97C157.377 145.798 157.078 145.522 156.844 145.144C156.613 144.766 156.472 144.286 156.421 143.703L156.028 139.21L157.403 139.09L157.782 143.417C157.824 143.899 157.991 144.27 158.282 144.532C158.574 144.794 158.933 144.906 159.359 144.869C159.617 144.846 159.867 144.759 160.11 144.608C160.356 144.457 160.553 144.244 160.698 143.968C160.847 143.693 160.903 143.354 160.864 142.953ZM164.348 145.6L163.73 138.536L165.059 138.42L165.157 139.542L165.231 139.536C165.326 139.144 165.527 138.825 165.833 138.579C166.142 138.33 166.503 138.187 166.917 138.151C167.003 138.143 167.104 138.137 167.221 138.133C167.341 138.129 167.436 138.129 167.504 138.132L167.619 139.447C167.562 139.437 167.463 139.428 167.32 139.422C167.177 139.413 167.035 139.415 166.894 139.427C166.569 139.456 166.286 139.55 166.043 139.71C165.804 139.867 165.621 140.073 165.495 140.328C165.369 140.58 165.319 140.859 165.346 141.166L165.723 145.48L164.348 145.6ZM171.324 145.147C170.877 145.186 170.465 145.139 170.089 145.005C169.712 144.868 169.404 144.649 169.165 144.349C168.928 144.049 168.79 143.667 168.749 143.204C168.714 142.805 168.762 142.47 168.893 142.199C169.024 141.929 169.213 141.707 169.46 141.534C169.708 141.36 169.989 141.222 170.304 141.117C170.62 141.012 170.943 140.925 171.273 140.856C171.692 140.77 172.032 140.7 172.293 140.646C172.554 140.589 172.741 140.519 172.854 140.435C172.967 140.351 173.016 140.226 173.002 140.061L172.999 140.028C172.964 139.627 172.823 139.325 172.577 139.125C172.334 138.923 171.99 138.842 171.545 138.881C171.082 138.922 170.727 139.056 170.478 139.285C170.232 139.51 170.069 139.752 169.99 140.009L168.672 139.828C168.787 139.385 168.981 139.019 169.252 138.73C169.526 138.437 169.851 138.214 170.227 138.06C170.603 137.904 171.004 137.807 171.43 137.77C171.712 137.745 172.014 137.753 172.335 137.793C172.66 137.829 172.968 137.923 173.259 138.073C173.553 138.224 173.803 138.453 174.01 138.763C174.216 139.069 174.341 139.48 174.386 139.995L174.797 144.686L173.454 144.803L173.369 143.838L173.314 143.842C173.241 144.028 173.123 144.214 172.96 144.402C172.797 144.589 172.581 144.752 172.312 144.889C172.043 145.027 171.714 145.113 171.324 145.147ZM171.527 144.017C171.907 143.984 172.225 143.881 172.482 143.707C172.742 143.533 172.932 143.318 173.051 143.064C173.174 142.806 173.223 142.537 173.199 142.258L173.119 141.348C173.074 141.401 172.983 141.455 172.846 141.511C172.712 141.563 172.557 141.612 172.382 141.658C172.206 141.701 172.035 141.742 171.869 141.782C171.702 141.818 171.563 141.849 171.45 141.874C171.187 141.931 170.948 142.009 170.734 142.108C170.523 142.207 170.359 142.337 170.24 142.499C170.124 142.657 170.077 142.859 170.098 143.104C170.128 143.445 170.276 143.691 170.543 143.844C170.809 143.994 171.137 144.051 171.527 144.017ZM177.179 134.987L178.003 144.405L176.628 144.526L175.804 135.107L177.179 134.987Z" fill="#9A958D"/>
<path d="M90.0288 147.829L178.557 140.084L178.634 140.967L90.1061 148.712L90.0288 147.829Z" fill="#9A958D"/>
<path d="M100.339 181.291C100.252 180.86 100.02 180.541 99.6439 180.332C99.2671 180.121 98.8089 180.039 98.2693 180.087C97.883 180.12 97.5541 180.211 97.2828 180.358C97.0112 180.503 96.8065 180.687 96.6686 180.913C96.5335 181.134 96.4777 181.379 96.501 181.645C96.5206 181.869 96.5896 182.058 96.7081 182.211C96.8296 182.364 96.981 182.489 97.1624 182.584C97.3465 182.676 97.5415 182.75 97.7472 182.806C97.9527 182.859 98.1494 182.901 98.3373 182.931L99.2781 183.089C99.585 183.137 99.9018 183.209 100.229 183.307C100.555 183.405 100.863 183.545 101.15 183.727C101.438 183.909 101.678 184.144 101.87 184.434C102.065 184.722 102.182 185.078 102.219 185.501C102.265 186.035 102.169 186.521 101.929 186.959C101.692 187.396 101.324 187.758 100.824 188.042C100.326 188.327 99.7098 188.501 98.974 188.566C98.2688 188.627 97.6489 188.569 97.1143 188.39C96.5796 188.211 96.1487 187.929 95.8215 187.544C95.494 187.155 95.2901 186.679 95.2098 186.115L96.6355 185.99C96.6929 186.328 96.828 186.602 97.041 186.812C97.2568 187.018 97.5213 187.163 97.8345 187.247C98.1505 187.328 98.4909 187.352 98.8558 187.32C99.2574 187.285 99.6091 187.191 99.9108 187.038C100.215 186.881 100.448 186.682 100.609 186.439C100.77 186.193 100.837 185.917 100.81 185.611C100.786 185.332 100.686 185.11 100.511 184.946C100.339 184.782 100.113 184.654 99.8331 184.561C99.5562 184.468 99.2452 184.391 98.9002 184.332L97.7607 184.126C96.9885 183.986 96.3642 183.737 95.8879 183.377C95.4146 183.016 95.1492 182.508 95.0918 181.852C95.0443 181.31 95.15 180.823 95.409 180.392C95.6679 179.962 96.039 179.613 96.5222 179.345C97.0052 179.074 97.5624 178.911 98.194 178.856C98.8317 178.8 99.4041 178.863 99.9112 179.044C100.421 179.225 100.835 179.499 101.151 179.867C101.467 180.232 101.653 180.666 101.71 181.171L100.339 181.291ZM105.042 183.651L105.409 187.845L104.034 187.965L103.416 180.901L104.736 180.786L104.837 181.936L104.924 181.928C105.054 181.54 105.282 181.217 105.608 180.96C105.938 180.702 106.368 180.551 106.899 180.504C107.38 180.462 107.81 180.526 108.19 180.697C108.569 180.865 108.876 181.137 109.109 181.516C109.343 181.894 109.486 182.374 109.537 182.956L109.93 187.45L108.555 187.57L108.176 183.242C108.131 182.73 107.963 182.342 107.671 182.077C107.379 181.809 107 181.695 106.534 181.736C106.215 181.764 105.937 181.858 105.701 182.018C105.468 182.177 105.291 182.396 105.17 182.676C105.052 182.952 105.009 183.277 105.042 183.651ZM113.843 187.265C113.396 187.304 112.984 187.257 112.608 187.123C112.231 186.986 111.923 186.767 111.684 186.467C111.447 186.166 111.309 185.784 111.268 185.321C111.233 184.923 111.281 184.588 111.412 184.317C111.543 184.046 111.732 183.824 111.979 183.651C112.227 183.478 112.508 183.339 112.823 183.234C113.139 183.129 113.462 183.042 113.792 182.973C114.211 182.887 114.551 182.817 114.812 182.764C115.073 182.707 115.26 182.636 115.373 182.552C115.486 182.468 115.535 182.344 115.521 182.178L115.518 182.146C115.483 181.744 115.342 181.443 115.096 181.242C114.853 181.041 114.509 180.96 114.064 180.999C113.602 181.039 113.246 181.174 112.997 181.403C112.751 181.628 112.588 181.869 112.509 182.126L111.191 181.945C111.306 181.503 111.5 181.136 111.771 180.847C112.045 180.554 112.37 180.331 112.746 180.178C113.122 180.021 113.523 179.925 113.949 179.887C114.231 179.863 114.533 179.87 114.854 179.91C115.179 179.947 115.487 180.04 115.778 180.191C116.072 180.341 116.322 180.571 116.529 180.88C116.735 181.187 116.86 181.597 116.905 182.113L117.316 186.803L115.973 186.921L115.888 185.955L115.833 185.96C115.76 186.146 115.642 186.332 115.479 186.519C115.316 186.706 115.1 186.869 114.831 187.007C114.562 187.145 114.233 187.231 113.843 187.265ZM114.046 186.135C114.426 186.102 114.744 185.998 115.001 185.824C115.261 185.65 115.451 185.436 115.57 185.181C115.693 184.923 115.742 184.655 115.718 184.376L115.638 183.465C115.593 183.519 115.502 183.573 115.365 183.628C115.231 183.68 115.076 183.729 114.901 183.775C114.725 183.819 114.554 183.86 114.388 183.899C114.221 183.935 114.082 183.966 113.969 183.991C113.706 184.048 113.467 184.126 113.253 184.225C113.042 184.324 112.878 184.454 112.759 184.616C112.643 184.775 112.596 184.977 112.617 185.222C112.647 185.562 112.795 185.809 113.062 185.961C113.329 186.111 113.656 186.169 114.046 186.135ZM119.379 189.292L118.529 179.579L119.872 179.462L119.972 180.607L120.087 180.597C120.154 180.443 120.254 180.262 120.388 180.056C120.521 179.85 120.715 179.663 120.969 179.496C121.223 179.325 121.569 179.221 122.007 179.182C122.577 179.132 123.099 179.232 123.572 179.481C124.045 179.73 124.432 180.115 124.734 180.635C125.039 181.155 125.225 181.797 125.292 182.561C125.359 183.324 125.289 183.99 125.082 184.558C124.875 185.123 124.562 185.572 124.143 185.905C123.724 186.235 123.229 186.425 122.659 186.475C122.23 186.512 121.872 186.471 121.587 186.351C121.305 186.23 121.078 186.08 120.908 185.901C120.738 185.721 120.605 185.559 120.509 185.416L120.426 185.424L120.754 189.172L119.379 189.292ZM120.186 182.993C120.229 183.49 120.339 183.919 120.516 184.28C120.693 184.642 120.927 184.916 121.218 185.104C121.51 185.289 121.853 185.364 122.248 185.329C122.659 185.293 122.993 185.154 123.25 184.913C123.507 184.668 123.689 184.35 123.797 183.961C123.908 183.571 123.943 183.14 123.902 182.668C123.861 182.202 123.754 181.79 123.58 181.431C123.41 181.072 123.176 180.798 122.878 180.608C122.583 180.417 122.229 180.34 121.815 180.376C121.416 180.411 121.088 180.543 120.83 180.773C120.575 181.002 120.393 181.307 120.285 181.687C120.176 182.067 120.143 182.503 120.186 182.993ZM132.637 185.621C132.189 185.66 131.777 185.612 131.401 185.478C131.025 185.341 130.717 185.123 130.477 184.822C130.241 184.522 130.102 184.14 130.062 183.677C130.027 183.278 130.075 182.944 130.206 182.673C130.336 182.402 130.525 182.18 130.773 182.007C131.02 181.834 131.302 181.695 131.617 181.59C131.932 181.485 132.255 181.398 132.586 181.329C133.005 181.243 133.345 181.173 133.606 181.119C133.866 181.063 134.053 180.992 134.166 180.908C134.279 180.824 134.329 180.699 134.314 180.534L134.311 180.502C134.276 180.1 134.136 179.799 133.889 179.598C133.646 179.397 133.302 179.316 132.858 179.354C132.395 179.395 132.039 179.53 131.79 179.758C131.544 179.984 131.382 180.225 131.302 180.482L129.984 180.301C130.1 179.858 130.293 179.492 130.565 179.203C130.839 178.91 131.164 178.687 131.54 178.534C131.915 178.377 132.316 178.28 132.742 178.243C133.024 178.218 133.326 178.226 133.648 178.266C133.972 178.302 134.28 178.396 134.571 178.546C134.866 178.697 135.116 178.927 135.322 179.236C135.528 179.543 135.654 179.953 135.699 180.468L136.109 185.159L134.766 185.277L134.682 184.311L134.627 184.316C134.553 184.501 134.435 184.688 134.272 184.875C134.11 185.062 133.894 185.225 133.625 185.363C133.355 185.501 133.026 185.586 132.637 185.621ZM132.839 184.491C133.219 184.457 133.538 184.354 133.794 184.18C134.054 184.006 134.244 183.792 134.364 183.537C134.486 183.279 134.536 183.011 134.511 182.732L134.432 181.821C134.387 181.874 134.296 181.929 134.158 181.984C134.024 182.036 133.869 182.085 133.694 182.131C133.519 182.174 133.348 182.216 133.181 182.255C133.014 182.291 132.875 182.322 132.763 182.347C132.499 182.404 132.26 182.482 132.047 182.581C131.836 182.68 131.671 182.81 131.552 182.972C131.437 183.13 131.389 183.332 131.411 183.578C131.441 183.918 131.589 184.164 131.856 184.317C132.122 184.467 132.45 184.525 132.839 184.491ZM141.6 187.348L140.75 177.635L142.093 177.518L142.193 178.663L142.308 178.653C142.375 178.499 142.475 178.318 142.608 178.112C142.742 177.906 142.935 177.719 143.19 177.552C143.443 177.381 143.79 177.277 144.228 177.238C144.798 177.188 145.32 177.288 145.793 177.537C146.265 177.786 146.653 178.171 146.955 178.691C147.26 179.211 147.446 179.853 147.512 180.616C147.579 181.38 147.509 182.046 147.303 182.614C147.096 183.178 146.783 183.628 146.364 183.961C145.945 184.291 145.45 184.481 144.88 184.531C144.451 184.568 144.093 184.527 143.808 184.407C143.525 184.286 143.299 184.136 143.129 183.957C142.959 183.777 142.826 183.615 142.73 183.472L142.647 183.48L142.975 187.228L141.6 187.348ZM142.406 181.049C142.45 181.546 142.56 181.975 142.737 182.336C142.914 182.698 143.148 182.972 143.439 183.16C143.73 183.345 144.074 183.42 144.469 183.385C144.88 183.349 145.214 183.21 145.471 182.968C145.727 182.724 145.91 182.406 146.018 182.017C146.129 181.627 146.164 181.196 146.122 180.724C146.082 180.258 145.975 179.846 145.801 179.487C145.631 179.128 145.397 178.854 145.099 178.663C144.804 178.473 144.45 178.396 144.036 178.432C143.637 178.467 143.309 178.599 143.051 178.829C142.796 179.058 142.614 179.363 142.505 179.743C142.397 180.123 142.364 180.559 142.406 181.049ZM150.369 179.685L150.736 183.88L149.361 184L148.537 174.581L149.894 174.463L150.2 177.967L150.288 177.959C150.42 177.565 150.646 177.24 150.967 176.987C151.288 176.733 151.723 176.583 152.271 176.534C152.756 176.492 153.188 176.555 153.567 176.722C153.949 176.89 154.257 177.162 154.491 177.541C154.728 177.915 154.872 178.397 154.923 178.986L155.317 183.479L153.941 183.599L153.563 179.271C153.517 178.753 153.349 178.363 153.057 178.102C152.765 177.837 152.382 177.725 151.907 177.767C151.582 177.795 151.296 177.89 151.051 178.05C150.808 178.21 150.625 178.43 150.502 178.71C150.38 178.986 150.336 179.311 150.369 179.685ZM160.139 183.2C159.477 183.258 158.886 183.157 158.366 182.897C157.846 182.637 157.425 182.245 157.105 181.724C156.784 181.202 156.592 180.576 156.528 179.846C156.464 179.113 156.544 178.461 156.769 177.888C156.994 177.315 157.34 176.856 157.807 176.509C158.274 176.162 158.839 175.96 159.501 175.902C160.163 175.844 160.754 175.945 161.275 176.206C161.795 176.466 162.215 176.859 162.536 177.384C162.857 177.908 163.05 178.537 163.114 179.27C163.177 180 163.097 180.649 162.872 181.219C162.647 181.789 162.3 182.247 161.833 182.593C161.366 182.94 160.802 183.143 160.139 183.2ZM160.043 182.046C160.472 182.008 160.818 181.864 161.08 181.612C161.342 181.361 161.525 181.04 161.626 180.651C161.731 180.262 161.764 179.841 161.724 179.387C161.685 178.936 161.58 178.528 161.409 178.163C161.241 177.795 161.005 177.508 160.703 177.303C160.401 177.098 160.035 177.014 159.606 177.051C159.174 177.089 158.825 177.236 158.56 177.49C158.298 177.745 158.115 178.068 158.01 178.461C157.908 178.85 157.877 179.269 157.916 179.72C157.956 180.174 158.06 180.583 158.228 180.949C158.399 181.314 158.635 181.597 158.937 181.8C159.242 182.002 159.611 182.084 160.043 182.046ZM167.634 175.283L167.731 176.387L163.872 176.724L163.776 175.621L167.634 175.283ZM164.662 173.838L166.037 173.717L166.622 180.4C166.645 180.666 166.703 180.864 166.794 180.992C166.886 181.117 166.996 181.198 167.126 181.236C167.259 181.271 167.4 181.282 167.551 181.268C167.661 181.259 167.757 181.243 167.838 181.22C167.92 181.198 167.983 181.18 168.028 181.166L168.376 182.281C168.299 182.318 168.188 182.359 168.044 182.402C167.9 182.449 167.717 182.483 167.497 182.506C167.135 182.544 166.793 182.509 166.468 182.401C166.144 182.294 165.872 182.107 165.655 181.842C165.437 181.577 165.309 181.231 165.272 180.805L164.662 173.838ZM172.685 182.103C172.023 182.161 171.432 182.06 170.912 181.799C170.391 181.539 169.971 181.148 169.65 180.626C169.33 180.104 169.138 179.478 169.074 178.749C169.01 178.016 169.09 177.363 169.315 176.79C169.54 176.218 169.886 175.758 170.353 175.411C170.82 175.065 171.385 174.862 172.047 174.804C172.709 174.746 173.3 174.848 173.82 175.108C174.341 175.368 174.761 175.761 175.082 176.286C175.403 176.811 175.595 177.44 175.659 178.172C175.723 178.902 175.643 179.552 175.418 180.121C175.192 180.691 174.846 181.149 174.379 181.496C173.912 181.843 173.348 182.045 172.685 182.103ZM172.589 180.948C173.018 180.911 173.364 180.766 173.626 180.514C173.888 180.263 174.07 179.943 174.172 179.554C174.277 179.165 174.31 178.743 174.27 178.289C174.231 177.839 174.126 177.431 173.955 177.066C173.786 176.697 173.551 176.411 173.249 176.205C172.947 176 172.581 175.916 172.152 175.954C171.72 175.992 171.371 176.138 171.106 176.393C170.844 176.647 170.661 176.971 170.556 177.363C170.454 177.752 170.423 178.172 170.462 178.622C170.502 179.076 170.606 179.486 170.774 179.851C170.945 180.216 171.181 180.5 171.483 180.702C171.788 180.904 172.157 180.986 172.589 180.948Z" fill="#9A958D"/>
<path d="M94.4043 184.535L176.202 177.379L176.279 178.262L94.4816 185.418L94.4043 184.535Z" fill="#9A958D"/>
<path d="M103.67 215.79L105.096 215.666L105.637 221.86C105.695 222.52 105.591 223.117 105.326 223.653C105.061 224.186 104.66 224.623 104.125 224.963C103.589 225.301 102.944 225.502 102.19 225.568C101.439 225.634 100.77 225.547 100.184 225.308C99.597 225.066 99.1268 224.705 98.7728 224.227C98.4187 223.745 98.2127 223.174 98.1551 222.515L97.6131 216.32L99.0341 216.196L99.5661 222.276C99.6033 222.702 99.73 223.072 99.946 223.387C100.165 223.702 100.456 223.939 100.819 224.099C101.182 224.255 101.601 224.313 102.076 224.271C102.555 224.229 102.959 224.1 103.289 223.882C103.622 223.662 103.866 223.378 104.021 223.031C104.179 222.683 104.239 222.296 104.202 221.87L103.67 215.79ZM108.883 220.599L109.25 224.793L107.875 224.913L107.257 217.849L108.577 217.734L108.678 218.884L108.765 218.876C108.895 218.488 109.123 218.165 109.45 217.908C109.779 217.65 110.209 217.498 110.74 217.452C111.221 217.41 111.651 217.474 112.031 217.645C112.41 217.812 112.717 218.085 112.951 218.463C113.185 218.841 113.327 219.322 113.378 219.904L113.771 224.397L112.396 224.518L112.017 220.19C111.973 219.678 111.804 219.29 111.512 219.025C111.22 218.757 110.841 218.643 110.375 218.684C110.056 218.712 109.778 218.806 109.542 218.965C109.309 219.125 109.132 219.344 109.011 219.624C108.893 219.9 108.851 220.225 108.883 220.599ZM116.166 214.697L116.99 224.116L115.615 224.236L114.791 214.817L116.166 214.697ZM121.828 223.836C121.166 223.894 120.575 223.793 120.055 223.533C119.534 223.272 119.114 222.881 118.793 222.359C118.473 221.837 118.28 221.212 118.217 220.482C118.153 219.749 118.233 219.096 118.458 218.524C118.683 217.951 119.029 217.491 119.496 217.145C119.963 216.798 120.527 216.596 121.19 216.538C121.852 216.48 122.443 216.581 122.963 216.841C123.483 217.102 123.904 217.494 124.225 218.019C124.546 218.544 124.738 219.173 124.802 219.906C124.866 220.635 124.785 221.285 124.56 221.855C124.335 222.424 123.989 222.882 123.522 223.229C123.055 223.576 122.49 223.778 121.828 223.836ZM121.732 222.681C122.161 222.644 122.507 222.499 122.769 222.248C123.031 221.996 123.213 221.676 123.315 221.287C123.42 220.898 123.453 220.476 123.413 220.023C123.374 219.572 123.268 219.164 123.097 218.799C122.929 218.431 122.694 218.144 122.392 217.939C122.09 217.733 121.724 217.649 121.295 217.687C120.862 217.725 120.514 217.871 120.249 218.126C119.987 218.381 119.804 218.704 119.699 219.096C119.597 219.485 119.566 219.905 119.605 220.356C119.645 220.81 119.749 221.219 119.917 221.584C120.087 221.949 120.324 222.233 120.626 222.435C120.931 222.637 121.299 222.719 121.732 222.681ZM129.631 223.153C128.948 223.213 128.345 223.11 127.825 222.843C127.307 222.574 126.892 222.176 126.58 221.65C126.269 221.124 126.082 220.507 126.02 219.799C125.957 219.082 126.037 218.437 126.258 217.864C126.48 217.289 126.822 216.825 127.286 216.472C127.749 216.12 128.314 215.914 128.979 215.856C129.516 215.809 130.003 215.867 130.44 216.03C130.877 216.189 131.24 216.435 131.529 216.768C131.821 217.101 132.012 217.503 132.102 217.974L130.764 218.091C130.661 217.767 130.468 217.496 130.183 217.28C129.902 217.064 129.542 216.975 129.103 217.013C128.72 217.047 128.393 217.177 128.123 217.405C127.855 217.629 127.658 217.934 127.531 218.318C127.404 218.7 127.362 219.143 127.406 219.645C127.451 220.161 127.568 220.598 127.757 220.959C127.946 221.319 128.192 221.589 128.495 221.77C128.802 221.95 129.149 222.023 129.539 221.989C129.799 221.966 130.031 221.898 130.234 221.785C130.441 221.668 130.608 221.512 130.736 221.319C130.867 221.125 130.951 220.899 130.987 220.639L132.325 220.522C132.316 220.983 132.203 221.404 131.986 221.784C131.769 222.165 131.461 222.476 131.062 222.718C130.666 222.959 130.189 223.105 129.631 223.153ZM135.046 220.122L134.89 218.444L135.129 218.423L137.682 215.187L139.329 215.043L136.417 218.727L136.2 218.746L135.046 220.122ZM133.991 222.628L133.167 213.21L134.542 213.089L135.366 222.508L133.991 222.628ZM138.452 222.238L135.629 219.102L136.492 218.058L140.14 222.09L138.452 222.238ZM145.728 224.271C145.523 224.289 145.334 224.288 145.163 224.269C144.992 224.253 144.863 224.231 144.777 224.201L145.009 223.045C145.267 223.091 145.493 223.1 145.689 223.074C145.884 223.048 146.051 222.959 146.189 222.808C146.33 222.656 146.445 222.419 146.534 222.096L146.664 221.612L143.453 214.683L144.925 214.554L147.193 219.879L147.267 219.873L148.576 214.234L150.052 214.105L147.842 222.367C147.739 222.746 147.595 223.072 147.408 223.345C147.222 223.621 146.991 223.836 146.714 223.99C146.437 224.144 146.109 224.237 145.728 224.271ZM154.71 220.959C154.048 221.017 153.457 220.916 152.937 220.656C152.417 220.395 151.996 220.004 151.676 219.482C151.355 218.961 151.163 218.335 151.099 217.605C151.035 216.872 151.115 216.22 151.34 215.647C151.565 215.074 151.911 214.615 152.378 214.268C152.845 213.921 153.41 213.719 154.072 213.661C154.734 213.603 155.325 213.704 155.845 213.964C156.366 214.225 156.786 214.617 157.107 215.142C157.428 215.667 157.62 216.296 157.684 217.029C157.748 217.759 157.668 218.408 157.443 218.978C157.217 219.547 156.871 220.006 156.404 220.352C155.937 220.699 155.373 220.901 154.71 220.959ZM154.614 219.805C155.043 219.767 155.389 219.622 155.651 219.371C155.913 219.119 156.095 218.799 156.197 218.41C156.302 218.021 156.335 217.6 156.295 217.146C156.256 216.695 156.151 216.287 155.98 215.922C155.811 215.554 155.576 215.267 155.274 215.062C154.972 214.856 154.606 214.773 154.177 214.81C153.745 214.848 153.396 214.994 153.131 215.249C152.869 215.504 152.686 215.827 152.581 216.22C152.479 216.608 152.448 217.028 152.487 217.479C152.527 217.933 152.631 218.342 152.799 218.708C152.97 219.073 153.206 219.356 153.508 219.558C153.813 219.76 154.182 219.842 154.614 219.805ZM163.744 217.073L163.382 212.939L164.762 212.818L165.38 219.882L164.028 220L163.921 218.777L163.847 218.784C163.718 219.175 163.485 219.512 163.148 219.795C162.814 220.074 162.382 220.237 161.851 220.284C161.398 220.323 160.987 220.259 160.62 220.09C160.256 219.918 159.957 219.643 159.723 219.265C159.493 218.887 159.352 218.406 159.301 217.824L158.908 213.33L160.283 213.21L160.661 217.538C160.703 218.019 160.87 218.391 161.162 218.652C161.454 218.914 161.813 219.026 162.239 218.989C162.496 218.967 162.747 218.88 162.99 218.729C163.236 218.578 163.432 218.364 163.578 218.089C163.727 217.813 163.782 217.475 163.744 217.073ZM167.228 219.721L166.61 212.657L167.939 212.54L168.037 213.662L168.11 213.656C168.206 213.265 168.407 212.946 168.713 212.7C169.021 212.45 169.383 212.307 169.797 212.271C169.882 212.264 169.984 212.258 170.101 212.254C170.221 212.249 170.315 212.249 170.383 212.252L170.499 213.568C170.442 213.557 170.342 213.549 170.2 213.543C170.057 213.534 169.915 213.535 169.774 213.548C169.449 213.576 169.165 213.67 168.923 213.831C168.683 213.987 168.5 214.193 168.374 214.449C168.248 214.701 168.198 214.98 168.225 215.286L168.603 219.6L167.228 219.721ZM175.736 218.976L174.912 209.558L176.287 209.437L176.593 212.937L176.676 212.93C176.742 212.776 176.843 212.595 176.976 212.389C177.109 212.183 177.303 211.996 177.557 211.829C177.811 211.658 178.157 211.554 178.595 211.515C179.166 211.465 179.687 211.565 180.16 211.814C180.633 212.063 181.02 212.448 181.322 212.968C181.627 213.488 181.813 214.13 181.88 214.893C181.947 215.657 181.877 216.323 181.67 216.891C181.463 217.456 181.15 217.905 180.731 218.238C180.312 218.568 179.818 218.758 179.247 218.808C178.818 218.845 178.461 218.804 178.175 218.684C177.893 218.563 177.667 218.413 177.496 218.234C177.326 218.054 177.193 217.892 177.097 217.749L176.982 217.76L177.078 218.859L175.736 218.976ZM176.774 215.326C176.818 215.823 176.928 216.252 177.104 216.613C177.281 216.975 177.515 217.249 177.807 217.437C178.098 217.622 178.441 217.697 178.837 217.662C179.248 217.626 179.581 217.487 179.838 217.246C180.095 217.001 180.277 216.683 180.385 216.294C180.496 215.904 180.531 215.473 180.49 215.001C180.449 214.535 180.342 214.123 180.169 213.764C179.998 213.405 179.764 213.131 179.466 212.941C179.172 212.75 178.817 212.673 178.403 212.709C178.005 212.744 177.677 212.876 177.419 213.106C177.164 213.335 176.982 213.64 176.873 214.02C176.764 214.4 176.731 214.836 176.774 215.326ZM185.801 218.253C185.354 218.292 184.942 218.245 184.565 218.111C184.189 217.974 183.881 217.755 183.642 217.455C183.405 217.154 183.267 216.773 183.226 216.31C183.191 215.911 183.239 215.576 183.37 215.305C183.501 215.034 183.69 214.812 183.937 214.639C184.185 214.466 184.466 214.327 184.781 214.223C185.097 214.118 185.42 214.031 185.75 213.962C186.169 213.876 186.509 213.806 186.77 213.752C187.031 213.695 187.218 213.625 187.331 213.541C187.444 213.457 187.493 213.332 187.479 213.166L187.476 213.134C187.441 212.733 187.3 212.431 187.054 212.23C186.811 212.029 186.467 211.948 186.022 211.987C185.559 212.027 185.204 212.162 184.955 212.391C184.709 212.616 184.546 212.858 184.467 213.115L183.149 212.933C183.264 212.491 183.458 212.125 183.729 211.835C184.003 211.543 184.328 211.32 184.704 211.166C185.08 211.01 185.48 210.913 185.907 210.876C186.189 210.851 186.491 210.859 186.812 210.898C187.137 210.935 187.445 211.028 187.736 211.179C188.03 211.329 188.28 211.559 188.487 211.869C188.693 212.175 188.818 212.586 188.863 213.101L189.274 217.792L187.931 217.909L187.846 216.943L187.791 216.948C187.718 217.134 187.6 217.32 187.437 217.508C187.274 217.695 187.058 217.857 186.789 217.995C186.52 218.133 186.191 218.219 185.801 218.253ZM186.004 217.123C186.384 217.09 186.702 216.986 186.959 216.813C187.219 216.638 187.408 216.424 187.528 216.17C187.651 215.912 187.7 215.643 187.676 215.364L187.596 214.454C187.551 214.507 187.46 214.561 187.323 214.617C187.188 214.669 187.034 214.718 186.858 214.764C186.683 214.807 186.512 214.848 186.346 214.887C186.179 214.924 186.039 214.954 185.927 214.98C185.664 215.037 185.425 215.115 185.211 215.214C185 215.313 184.836 215.443 184.717 215.605C184.601 215.763 184.554 215.965 184.575 216.21C184.605 216.55 184.753 216.797 185.02 216.95C185.286 217.099 185.614 217.157 186.004 217.123ZM193.762 217.538C193.191 217.588 192.67 217.487 192.197 217.235C191.726 216.979 191.34 216.591 191.038 216.071C190.739 215.547 190.556 214.904 190.489 214.14C190.422 213.377 190.493 212.713 190.7 212.148C190.91 211.583 191.226 211.136 191.648 210.809C192.071 210.482 192.565 210.293 193.133 210.243C193.571 210.205 193.93 210.248 194.21 210.372C194.492 210.492 194.715 210.643 194.879 210.823C195.047 211.003 195.178 211.163 195.274 211.303L195.356 211.295L195.05 207.796L196.425 207.675L197.249 217.094L195.906 217.211L195.81 216.112L195.695 216.122C195.626 216.28 195.521 216.462 195.382 216.669C195.245 216.875 195.048 217.063 194.791 217.23C194.534 217.398 194.191 217.501 193.762 217.538ZM193.963 216.339C194.358 216.304 194.683 216.171 194.938 215.938C195.195 215.703 195.378 215.392 195.486 215.005C195.598 214.619 195.632 214.177 195.588 213.68C195.545 213.19 195.437 212.767 195.264 212.411C195.091 212.056 194.859 211.787 194.568 211.605C194.277 211.424 193.931 211.351 193.529 211.386C193.115 211.422 192.78 211.56 192.523 211.798C192.265 212.037 192.083 212.348 191.974 212.731C191.868 213.114 191.836 213.539 191.877 214.005C191.918 214.477 192.026 214.896 192.2 215.26C192.374 215.625 192.609 215.906 192.904 216.102C193.202 216.296 193.555 216.375 193.963 216.339ZM202.418 219.459C201.857 219.508 201.368 219.477 200.95 219.365C200.536 219.253 200.191 219.087 199.915 218.867C199.639 218.647 199.426 218.399 199.275 218.122L200.414 217.531C200.509 217.658 200.632 217.791 200.783 217.929C200.937 218.07 201.139 218.184 201.387 218.27C201.639 218.357 201.955 218.383 202.335 218.35C202.856 218.304 203.276 218.139 203.594 217.855C203.912 217.574 204.047 217.157 203.999 216.605L203.877 215.217L203.79 215.224C203.72 215.382 203.616 215.559 203.475 215.757C203.338 215.954 203.14 216.132 202.882 216.291C202.624 216.449 202.279 216.547 201.847 216.585C201.289 216.634 200.775 216.548 200.304 216.326C199.837 216.101 199.45 215.744 199.145 215.255C198.842 214.763 198.658 214.141 198.592 213.39C198.527 212.638 198.598 211.984 198.805 211.425C199.016 210.866 199.332 210.424 199.755 210.1C200.177 209.772 200.672 209.584 201.239 209.534C201.678 209.496 202.038 209.538 202.321 209.662C202.603 209.782 202.828 209.933 202.995 210.113C203.166 210.292 203.298 210.452 203.394 210.592L203.495 210.583L203.395 209.438L204.743 209.32L205.374 216.541C205.427 217.148 205.33 217.658 205.082 218.072C204.834 218.486 204.477 218.808 204.012 219.037C203.551 219.266 203.019 219.407 202.418 219.459ZM202.051 215.418C202.446 215.383 202.772 215.262 203.029 215.054C203.289 214.843 203.474 214.558 203.585 214.199C203.698 213.837 203.734 213.413 203.691 212.925C203.649 212.45 203.542 212.037 203.37 211.688C203.197 211.339 202.965 211.075 202.675 210.896C202.384 210.715 202.038 210.641 201.636 210.677C201.222 210.713 200.886 210.85 200.629 211.089C200.372 211.325 200.189 211.631 200.08 212.008C199.973 212.385 199.94 212.799 199.98 213.25C200.02 213.713 200.126 214.113 200.298 214.45C200.469 214.787 200.702 215.042 200.995 215.214C201.291 215.386 201.643 215.454 202.051 215.418ZM210.262 216.099C209.566 216.16 208.953 216.064 208.425 215.81C207.898 215.554 207.475 215.166 207.155 214.647C206.837 214.125 206.647 213.498 206.582 212.765C206.519 212.041 206.598 211.392 206.82 210.816C207.044 210.24 207.387 209.776 207.847 209.424C208.311 209.072 208.871 208.867 209.527 208.809C209.925 208.774 210.317 208.806 210.703 208.906C211.088 209.005 211.442 209.182 211.764 209.438C212.086 209.694 212.353 210.04 212.564 210.476C212.775 210.908 212.908 211.445 212.964 212.086L213.007 212.573L207.392 213.065L207.302 212.035L211.57 211.661C211.538 211.299 211.436 210.985 211.265 210.719C211.093 210.45 210.866 210.246 210.586 210.107C210.308 209.967 209.991 209.913 209.635 209.944C209.249 209.978 208.92 210.103 208.648 210.318C208.38 210.53 208.18 210.794 208.051 211.112C207.924 211.426 207.875 211.759 207.906 212.111L207.977 212.916C208.018 213.388 208.136 213.783 208.33 214.099C208.528 214.416 208.785 214.648 209.1 214.797C209.416 214.942 209.775 214.997 210.176 214.962C210.437 214.939 210.671 214.882 210.879 214.789C211.087 214.694 211.263 214.564 211.406 214.4C211.549 214.236 211.653 214.04 211.716 213.812L213.038 213.933C212.967 214.325 212.81 214.678 212.565 214.989C212.323 215.298 212.007 215.549 211.616 215.744C211.228 215.936 210.777 216.054 210.262 216.099Z" fill="#2F2F2F"/>
<defs>
<filter id="filter0_f_175_13313" x="0" y="0" width="320" height="310" filterUnits="userSpaceOnUse" color-interpolation-filters="sRGB">
<feFlood flood-opacity="0" result="BackgroundImageFix"/>
<feBlend mode="normal" in="SourceGraphic" in2="BackgroundImageFix" result="shape"/>
<feGaussianBlur stdDeviation="2.5" result="effect1_foregroundBlur_175_13313"/>
</filter>
<filter id="filter1_d_175_13313" x="16.8318" y="48.8319" width="288.561" height="235.5" filterUnits="userSpaceOnUse" color-interpolation-filters="sRGB">
<feFlood flood-opacity="0" result="BackgroundImageFix"/>
<feColorMatrix in="SourceAlpha" type="matrix" values="0 0 0 0 0 0 0 0 0 0 0 0 0 0 0 0 0 0 127 0" result="hardAlpha"/>
<feMorphology radius="5" operator="erode" in="SourceAlpha" result="effect1_dropShadow_175_13313"/>
<feOffset dy="14"/>
<feGaussianBlur stdDeviation="10"/>
<feComposite in2="hardAlpha" operator="out"/>
<feColorMatrix type="matrix" values="0 0 0 0 0 0 0 0 0 0 0 0 0 0 0 0 0 0 0.15 0"/>
<feBlend mode="normal" in2="BackgroundImageFix" result="effect1_dropShadow_175_13313"/>
<feBlend mode="normal" in="SourceGraphic" in2="effect1_dropShadow_175_13313" result="shape"/>
</filter>
<clipPath id="clip0_175_13313">
<rect width="14" height="14" fill="white" transform="translate(61.0263 143.596) rotate(-5)"/>
</clipPath>
<clipPath id="clip1_175_13313">
<rect width="14" height="14" fill="white" transform="translate(65.0263 179.596) rotate(-5)"/>
</clipPath>
</defs>
</svg>
