<svg width="367" height="392" viewBox="0 0 367 392" fill="none" xmlns="http://www.w3.org/2000/svg">
<g filter="url(#filter0_f_175_13312)">
<ellipse cx="196" cy="169" rx="155" ry="150" fill="#E7EDE6" fill-opacity="0.6"/>
</g>
<g filter="url(#filter1_d_175_13312)">
<rect width="260.167" height="302.561" rx="34" transform="matrix(0.995556 -0.0941698 0.0806567 0.996742 56 32.4998)" fill="#EFF1EA"/>
<rect x="0.538106" y="0.451286" width="259.167" height="301.561" rx="33.5" transform="matrix(0.995556 -0.0941698 0.0806567 0.996742 55.966 32.552)" stroke="#E2E7DE"/>
</g>
<line y1="-0.5" x2="301.481" y2="-0.5" transform="matrix(-0.0806567 -0.996742 0.995556 -0.0941698 118.316 330.122)" stroke="#E2E7DE"/>
<line y1="-0.5" x2="259.166" y2="-0.5" transform="matrix(0.995556 -0.0941698 0.0806567 0.996742 60 75.3306)" stroke="#E2E7DE"/>
<line y1="-0.5" x2="259.166" y2="-0.5" transform="matrix(0.995556 -0.0941698 0.0806567 0.996742 63 113.493)" stroke="#E2E7DE"/>
<line y1="-0.5" x2="259.166" y2="-0.5" transform="matrix(0.995556 -0.0941698 0.0806567 0.996742 66 151.334)" stroke="#E2E7DE"/>
<line y1="-0.5" x2="259.166" y2="-0.5" transform="matrix(0.995556 -0.0941698 0.0806567 0.996742 69 189.175)" stroke="#E2E7DE"/>
<line y1="-0.5" x2="259.166" y2="-0.5" transform="matrix(0.995556 -0.0941698 0.0806567 0.996742 72 227.016)" stroke="#E2E7DE"/>
<line y1="-0.5" x2="259.166" y2="-0.5" transform="matrix(0.995556 -0.0941698 0.0806567 0.996742 75 264.857)" stroke="#E2E7DE"/>
<line y1="-0.5" x2="258.158" y2="-0.5" transform="matrix(0.995745 -0.0921525 0.078925 0.99688 79 302.078)" stroke="#E2E7DE"/>
<line y1="-0.5" x2="301.481" y2="-0.5" transform="matrix(-0.0806567 -0.996742 0.995556 -0.0941698 155.316 326.878)" stroke="#E2E7DE"/>
<line y1="-0.5" x2="301.481" y2="-0.5" transform="matrix(-0.0806567 -0.996742 0.995556 -0.0941698 192.316 322.554)" stroke="#E2E7DE"/>
<line y1="-0.5" x2="301.481" y2="-0.5" transform="matrix(-0.0806567 -0.996742 0.995556 -0.0941698 229.316 319.31)" stroke="#E2E7DE"/>
<line y1="-0.5" x2="301.481" y2="-0.5" transform="matrix(-0.0806567 -0.996742 0.995556 -0.0941698 266.316 316.067)" stroke="#E2E7DE"/>
<line y1="-0.5" x2="301.481" y2="-0.5" transform="matrix(-0.0806567 -0.996742 0.995556 -0.0941698 303.316 312.823)" stroke="#E2E7DE"/>
<rect x="116.651" y="267.04" width="8" height="4" rx="2" transform="rotate(-40 116.651 267.04)" fill="#15A963"/>
<rect x="127" y="258.142" width="8" height="4" rx="2" transform="rotate(-40 127 258.142)" fill="#15A963"/>
<rect x="139" y="249.142" width="8" height="4" rx="2" transform="rotate(-40 139 249.142)" fill="#15A963"/>
<rect x="161" y="231.142" width="8" height="4" rx="2" transform="rotate(-40 161 231.142)" fill="#15A963"/>
<rect x="173" y="221.221" width="8" height="4" rx="2" transform="rotate(-31.8438 173 221.221)" fill="#15A963"/>
<rect x="186.284" y="213.504" width="8" height="4" rx="2" transform="rotate(-26.7546 186.284 213.504)" fill="#15A963"/>
<rect x="201" y="206.78" width="8" height="4" rx="2" transform="rotate(-26.7546 201 206.78)" fill="#15A963"/>
<rect x="216" y="199.691" width="8" height="4" rx="2" transform="rotate(-26.7546 216 199.691)" fill="#15A963"/>
<rect x="229" y="193.539" width="8" height="4" rx="2" transform="rotate(-34.5681 229 193.539)" fill="#15A963"/>
<rect x="240.344" y="184.736" width="8" height="4" rx="2" transform="rotate(-50.578 240.344 184.736)" fill="#15A963"/>
<rect x="247.428" y="169.957" width="8" height="4" rx="2" transform="rotate(-80.1069 247.428 169.957)" fill="#15A963"/>
<rect x="247.755" y="153.331" width="8" height="4" rx="2" transform="rotate(-91.3888 247.755 153.331)" fill="#15A963"/>
<rect x="247.194" y="136.095" width="8" height="4" rx="2" transform="rotate(-91.3888 247.194 136.095)" fill="#15A963"/>
<rect x="247.862" y="117.921" width="8" height="4" rx="2" transform="rotate(-86.5897 247.862 117.921)" fill="#15A963"/>
<rect x="248" y="100.906" width="8" height="4" rx="2" transform="rotate(-81.1894 248 100.906)" fill="#15A963"/>
<rect x="249" y="83.9056" width="8" height="4" rx="2" transform="rotate(-81.1894 249 83.9056)" fill="#15A963"/>
<rect x="150" y="240.142" width="8" height="4" rx="2" transform="rotate(-40 150 240.142)" fill="#15A963"/>
<g filter="url(#filter2_d_175_13312)">
<circle cx="112" cy="277" r="11" fill="white"/>
</g>
<circle cx="112" cy="277" r="7" fill="#15A963"/>
<g filter="url(#filter3_d_175_13312)">
<circle cx="60" cy="316" r="32" fill="#2F2F2F"/>
</g>
<path d="M60 326C65.5228 326 70 321.523 70 316C70 310.477 65.5228 306 60 306C54.4772 306 50 310.477 50 316C50 321.523 54.4772 326 60 326Z" stroke="white" stroke-width="2" stroke-linecap="round" stroke-linejoin="round"/>
<path d="M64.24 311.76L62.436 317.171C62.3378 317.466 62.1724 317.733 61.9528 317.953C61.7333 318.172 61.4656 318.338 61.171 318.436L55.76 320.24L57.564 314.829C57.6622 314.534 57.8276 314.267 58.0472 314.047C58.2668 313.828 58.5344 313.662 58.829 313.564L64.24 311.76Z" stroke="white" stroke-width="2" stroke-linecap="round" stroke-linejoin="round"/>
<g clip-path="url(#clip0_175_13312)">
<g filter="url(#filter4_d_175_13312)">
<path d="M263.875 80.5701C251.278 83.9426 234.338 73.1868 229.004 69.4803C228.555 69.122 228.232 68.6262 228.083 68.0677C227.933 67.5093 227.966 66.9184 228.175 66.384C230.944 60.508 240.244 42.7274 252.841 39.3549C258.194 37.9218 263.909 38.7185 268.729 41.5698C273.549 44.4211 277.079 49.0934 278.542 54.5589C280.005 60.0244 279.282 65.8353 276.531 70.7134C273.781 75.5914 269.228 79.137 263.875 80.5701Z" fill="#15A963"/>
</g>
</g>
<g filter="url(#filter5_d_175_13312)">
<rect x="274.665" width="65" height="65" rx="15" transform="rotate(5 274.665 0)" fill="white"/>
</g>
<g clip-path="url(#clip1_175_13312)">
<path d="M315.068 33.6068C314.488 40.2388 306.526 46.502 303.869 48.4191C303.624 48.572 303.336 48.6411 303.048 48.6159C302.76 48.5907 302.488 48.4726 302.273 48.2794C299.989 45.9301 293.236 38.3794 293.816 31.7474C294.063 28.9292 295.419 26.3244 297.586 24.506C299.753 22.6875 302.554 21.8045 305.372 22.051C308.19 22.2976 310.795 23.6536 312.613 25.8207C314.432 27.9878 315.315 30.7885 315.068 33.6068Z" stroke="#15A963" stroke-width="3" stroke-linecap="round" stroke-linejoin="round"/>
<path d="M304.094 36.6619C306.294 36.8544 308.234 35.2264 308.427 33.0257C308.619 30.825 306.991 28.8849 304.791 28.6923C302.59 28.4998 300.65 30.1277 300.457 32.3285C300.265 34.5292 301.893 36.4693 304.094 36.6619Z" stroke="#15A963" stroke-width="3" stroke-linecap="round" stroke-linejoin="round"/>
</g>
<defs>
<filter id="filter0_f_175_13312" x="36" y="14" width="320" height="310" filterUnits="userSpaceOnUse" color-interpolation-filters="sRGB">
<feFlood flood-opacity="0" result="BackgroundImageFix"/>
<feBlend mode="normal" in="SourceGraphic" in2="BackgroundImageFix" result="shape"/>
<feGaussianBlur stdDeviation="2.5" result="effect1_foregroundBlur_175_13312"/>
</filter>
<filter id="filter1_d_175_13312" x="28.6296" y="5.04854" width="338.155" height="379.978" filterUnits="userSpaceOnUse" color-interpolation-filters="sRGB">
<feFlood flood-opacity="0" result="BackgroundImageFix"/>
<feColorMatrix in="SourceAlpha" type="matrix" values="0 0 0 0 0 0 0 0 0 0 0 0 0 0 0 0 0 0 127 0" result="hardAlpha"/>
<feMorphology radius="20" operator="erode" in="SourceAlpha" result="effect1_dropShadow_175_13312"/>
<feOffset dy="24"/>
<feGaussianBlur stdDeviation="25"/>
<feComposite in2="hardAlpha" operator="out"/>
<feColorMatrix type="matrix" values="0 0 0 0 0 0 0 0 0 0 0 0 0 0 0 0 0 0 0.1 0"/>
<feBlend mode="normal" in2="BackgroundImageFix" result="effect1_dropShadow_175_13312"/>
<feBlend mode="normal" in="SourceGraphic" in2="effect1_dropShadow_175_13312" result="shape"/>
</filter>
<filter id="filter2_d_175_13312" x="81" y="250" width="62" height="62" filterUnits="userSpaceOnUse" color-interpolation-filters="sRGB">
<feFlood flood-opacity="0" result="BackgroundImageFix"/>
<feColorMatrix in="SourceAlpha" type="matrix" values="0 0 0 0 0 0 0 0 0 0 0 0 0 0 0 0 0 0 127 0" result="hardAlpha"/>
<feOffset dy="4"/>
<feGaussianBlur stdDeviation="10"/>
<feComposite in2="hardAlpha" operator="out"/>
<feColorMatrix type="matrix" values="0 0 0 0 0 0 0 0 0 0 0 0 0 0 0 0 0 0 0.15 0"/>
<feBlend mode="normal" in2="BackgroundImageFix" result="effect1_dropShadow_175_13312"/>
<feBlend mode="normal" in="SourceGraphic" in2="effect1_dropShadow_175_13312" result="shape"/>
</filter>
<filter id="filter3_d_175_13312" x="0" y="272" width="120" height="120" filterUnits="userSpaceOnUse" color-interpolation-filters="sRGB">
<feFlood flood-opacity="0" result="BackgroundImageFix"/>
<feColorMatrix in="SourceAlpha" type="matrix" values="0 0 0 0 0 0 0 0 0 0 0 0 0 0 0 0 0 0 127 0" result="hardAlpha"/>
<feMorphology radius="2" operator="erode" in="SourceAlpha" result="effect1_dropShadow_175_13312"/>
<feOffset dy="16"/>
<feGaussianBlur stdDeviation="15"/>
<feComposite in2="hardAlpha" operator="out"/>
<feColorMatrix type="matrix" values="0 0 0 0 0 0 0 0 0 0 0 0 0 0 0 0 0 0 0.25 0"/>
<feBlend mode="normal" in2="BackgroundImageFix" result="effect1_dropShadow_175_13312"/>
<feBlend mode="normal" in="SourceGraphic" in2="effect1_dropShadow_175_13312" result="shape"/>
</filter>
<filter id="filter4_d_175_13312" x="212.99" y="31.6582" width="81.2921" height="72.5577" filterUnits="userSpaceOnUse" color-interpolation-filters="sRGB">
<feFlood flood-opacity="0" result="BackgroundImageFix"/>
<feColorMatrix in="SourceAlpha" type="matrix" values="0 0 0 0 0 0 0 0 0 0 0 0 0 0 0 0 0 0 127 0" result="hardAlpha"/>
<feOffset dy="8"/>
<feGaussianBlur stdDeviation="7.5"/>
<feComposite in2="hardAlpha" operator="out"/>
<feColorMatrix type="matrix" values="0 0 0 0 0 0 0 0 0 0 0 0 0 0 0 0 0 0 0.15 0"/>
<feBlend mode="normal" in2="BackgroundImageFix" result="effect1_dropShadow_175_13312"/>
<feBlend mode="normal" in="SourceGraphic" in2="effect1_dropShadow_175_13312" result="shape"/>
</filter>
<filter id="filter5_d_175_13312" x="260.249" y="1.24935" width="87.9191" height="91.9191" filterUnits="userSpaceOnUse" color-interpolation-filters="sRGB">
<feFlood flood-opacity="0" result="BackgroundImageFix"/>
<feColorMatrix in="SourceAlpha" type="matrix" values="0 0 0 0 0 0 0 0 0 0 0 0 0 0 0 0 0 0 127 0" result="hardAlpha"/>
<feMorphology radius="5" operator="erode" in="SourceAlpha" result="effect1_dropShadow_175_13312"/>
<feOffset dy="14"/>
<feGaussianBlur stdDeviation="7.5"/>
<feComposite in2="hardAlpha" operator="out"/>
<feColorMatrix type="matrix" values="0 0 0 0 0 0 0 0 0 0 0 0 0 0 0 0 0 0 0.2 0"/>
<feBlend mode="normal" in2="BackgroundImageFix" result="effect1_dropShadow_175_13312"/>
<feBlend mode="normal" in="SourceGraphic" in2="effect1_dropShadow_175_13312" result="shape"/>
</filter>
<clipPath id="clip0_175_13312">
<rect width="64" height="67.1616" fill="white" transform="translate(276.215 26.1178) rotate(75.0123)"/>
</clipPath>
<clipPath id="clip1_175_13312">
<rect width="32" height="32" fill="white" transform="translate(289.665 18) rotate(5)"/>
</clipPath>
</defs>
</svg>
